<svg width="1012" height="1117" viewBox="0 0 1012 1117" fill="none" xmlns="http://www.w3.org/2000/svg">
<rect width="1011.62" height="1117" fill="#645DBE"/>
<g opacity="0.33">
<path d="M1011.62 279.284H883.091V214.634V139.646L221.604 139.646V279.284H123.025V836.229H233.701V903.023V969.702H881.713V827.862H896.86V688.457H1011.62V279.284Z" fill="#CECBF6"/>
<path fill-rule="evenodd" clip-rule="evenodd" d="M1011.62 698.125V274.585H901.336V139.625H791.047V0H239.601V139.625H129.311V279.25H0.081604V837.75H129.311V965.616L239.601 965.617V1117H570.468L239.601 965.617V837.75H129.311V279.25H239.601V139.625H791.047V274.585H901.336V698.125H791.047V837.75H901.336V698.125H1011.62Z" fill="#D9592A"/>
<rect x="901.102" width="281.332" height="112.784" transform="rotate(90 901.102 0)" fill="#A493D8"/>
<rect x="901.102" y="686.677" width="430.323" height="112.784" transform="rotate(90 901.102 686.677)" fill="#A493D8"/>
<rect x="239.719" y="827.148" width="142.559" height="239.717" transform="rotate(90 239.719 827.148)" fill="#A493D8"/>
<rect x="239.719" y="3.01529" width="277.203" height="112.784" transform="rotate(90 239.719 3.01529)" fill="#A493D8"/>
</g>
</svg>
