<svg width="1012" height="1117" viewBox="0 0 1012 1117" fill="none" xmlns="http://www.w3.org/2000/svg">
<rect y="1.01227" width="1011.62" height="1115.99" fill="#645DBE"/>
<g opacity="0.33">
<path d="M768.081 992.626V904.29H817.099V865.974H895.221V260.165V254.991L880.225 245.783L871.762 243.578H863.098H757.799V117.037H246.941V243.882L187.766 237.769L124.512 243.882V250.167V864.616H254.615V891.065H358.694V992.626H768.081Z" fill="#CECBF6"/>
<path fill-rule="evenodd" clip-rule="evenodd" d="M379.203 1117H758.405V992.888H884.806V868.777H1011.21V248.222H884.806V124.111H758.405V-2.94195e-05H252.802V124.111H126.401L126.401 248.222H-1.06639e-05V620.555L126.401 248.222H252.802V124.111H758.405V248.222H884.806V868.777H758.405V992.888H379.203V868.777H252.802V992.888H379.203V1117Z" fill="#D9592A"/>
<rect x="883.766" y="992.626" width="125.946" height="126.919" transform="rotate(180 883.766 992.626)" fill="#A493D8"/>
<rect x="763.357" y="992.626" width="512.913" height="126.919" transform="rotate(180 763.357 992.626)" fill="#A493D8"/>
<rect x="254.816" y="248.357" width="130.308" height="247.345" transform="rotate(180 254.816 248.357)" fill="#A493D8"/>
<rect x="884.695" y="248.357" width="127.753" height="124.016" transform="rotate(180 884.695 248.357)" fill="#A493D8"/>
</g>
</svg>
