<svg width="1012" height="1117" viewBox="0 0 1012 1117" fill="none" xmlns="http://www.w3.org/2000/svg">
<rect y="1.01953" width="1011.62" height="1117" fill="#645DBE"/>
<g opacity="0.33">
<path d="M243.126 125.191V214.107H194.108V252.674H115.986V862.463V867.671L130.982 876.94L139.445 879.159H148.109H253.408V1006.53L758.34 1001.71L764.266 878.853L823.441 885.006L886.695 878.853V872.526V254.042H756.592V227.419H652.513V125.191H243.126Z" fill="#CECBF6"/>
<path fill-rule="evenodd" clip-rule="evenodd" d="M632.004 0H252.802V124.926H126.401V249.853H0V874.484H126.401V999.412H252.802V1124.34H758.405V999.412H884.806L884.806 874.484H1011.21V249.853H884.806L884.806 874.484H758.405V999.412H252.802V874.484H126.401V249.853H252.802V124.926H632.004V249.853H758.405V124.926H632.004V0Z" fill="#D9592A"/>
<rect x="127.441" y="125.191" width="125.946" height="127.753" fill="#A493D8"/>
<rect x="247.85" y="125.191" width="512.913" height="127.753" fill="#A493D8"/>
<rect x="757.154" y="874.349" width="129.544" height="127.753" fill="#A493D8"/>
<rect x="128.318" y="874.349" width="125.946" height="127.753" fill="#A493D8"/>
</g>
</svg>
