<svg width="1012" height="1116" viewBox="0 0 1012 1116" fill="none" xmlns="http://www.w3.org/2000/svg">
<rect width="1011.62" height="1117" fill="#645DBE"/>
<g opacity="0.33">
<path d="M112.641 848.439H192.643V902.585H227.344V988.88H776.002H780.688L789.027 972.315L791.024 962.967V953.397V837.081H905.628V272.776H790.749L796.285 207.411L790.749 137.54H785.056H228.574V281.253H204.621V396.222H112.641V848.439Z" fill="#CECBF6"/>
<path fill-rule="evenodd" clip-rule="evenodd" d="M0 418.875V837.75H112.403V977.375H224.805V1117H786.818V977.375H899.22V837.75H1011.62V279.25H899.22V139.625L786.818 139.625V-5.14554e-05H449.61L786.818 139.625V279.25H899.22V837.75H786.818V977.375H224.805V837.75H112.403V418.875H224.805V279.25H112.403V418.875H0Z" fill="#D9592A"/>
<rect x="112.641" y="976.227" width="139.123" height="114.946" transform="rotate(-90 112.641 976.227)" fill="#A493D8"/>
<rect x="786.697" y="286.48" width="148.945" height="224.927" transform="rotate(-90 786.697 286.48)" fill="#A493D8"/>
<rect x="786.697" y="975.257" width="139.123" height="114.946" transform="rotate(-90 786.697 975.257)" fill="#A493D8"/>
</g>
</svg>
