<svg width="344" height="381" viewBox="0 0 344 381" fill="none" xmlns="http://www.w3.org/2000/svg">
<path d="M82.3365 42.3972V72.5097H65.736V85.571H39.2793V292.083V293.847L44.3579 296.985L47.2238 297.737H50.158H85.8187V340.873H258.827V297.633L278.867 299.717L300.288 297.633V295.491V86.0341H256.228V77.018H220.98V42.3972H82.3365Z" fill="#CECBF6"/>
<path fill-rule="evenodd" clip-rule="evenodd" d="M214.474 0H85.7896V42.3077H42.8948V84.6154H0V296.154H42.8948V338.462H85.7896V380.769H257.369V338.462H300.263V296.154H343.158V169.231H300.263V296.154H257.369V338.462H85.7896V296.154H42.8948V84.6154H85.7896V42.3077H214.474V84.6154H257.369V42.3077H214.474V0ZM206.883 126.923H170.245V211.538H118.31V243.204H206.883V169.231V126.923Z" fill="#D9592A"/>
<path d="M300.263 169.231V126.923H206.883V169.231H300.263Z" fill="#D9592A"/>
<rect x="68.3672" y="129.497" width="71.8021" height="41.2517" fill="#3F3A3A"/>
<rect x="43.1621" y="42.3972" width="42.6531" height="43.2649" fill="#A493D8"/>
<rect x="214.986" y="42.3972" width="42.6531" height="43.2649" fill="#A493D8"/>
<rect x="257.639" y="296.108" width="42.6531" height="43.2649" fill="#A493D8"/>
<rect x="43.4551" y="296.108" width="42.6531" height="43.2649" fill="#A493D8"/>
</svg>
